<?xml version="1.0" encoding="UTF-8"?>
<svg version="1.1" xmlns="http://www.w3.org/2000/svg" width="32" height="32">
<path d="M0 0 C1.640625 0.81640625 1.640625 0.81640625 3.890625 2.31640625 C4.880625 1.65640625 5.870625 0.99640625 6.890625 0.31640625 C6.890625 3.61640625 6.890625 6.91640625 6.890625 10.31640625 C3.590625 10.31640625 0.290625 10.31640625 -3.109375 10.31640625 C-2.779375 8.99640625 -2.449375 7.67640625 -2.109375 6.31640625 C-5.32045387 4.71086681 -8.62608228 4.84171569 -12.109375 5.31640625 C-15.73041411 7.36308053 -16.8610263 8.70144756 -18.421875 12.56640625 C-18.64875 13.47390625 -18.875625 14.38140625 -19.109375 15.31640625 C-20.759375 15.31640625 -22.409375 15.31640625 -24.109375 15.31640625 C-24.61542014 10.00293228 -23.49371261 7.41323598 -20.109375 3.31640625 C-14.69030058 -1.83171445 -6.98911037 -2.26498947 0 0 Z " fill="#FFFFFF" transform="translate(24.109375,0.68359375)"/>
<path d="M0 0 C1.65 0 3.3 0 5 0 C5.35773958 3.75626559 5.13556761 5.73929307 3.375 9.125 C0.02948322 13.1748361 -2.45055844 15.68832377 -7.84375 16.34765625 C-13.6883861 16.51402584 -18.09103437 16.27264375 -23 13 C-23.99 13.66 -24.98 14.32 -26 15 C-26 11.7 -26 8.4 -26 5 C-22.7 5 -19.4 5 -16 5 C-16.33 6.32 -16.66 7.64 -17 9 C-13.06427595 10.96786203 -8.34760167 10.23436551 -4.125 9.5 C-0.69783174 7.0808224 -0.71602144 4.03575718 0 0 Z " fill="#FFFFFF" transform="translate(27,16)"/>
</svg>
